<?xml version="1.0" encoding="UTF-8" standalone="no"?>
<!-- Created with Inkscape (http://www.inkscape.org/) -->

<svg
   width="95.25mm"
   height="95.25mm"
   viewBox="0 0 95.25 95.25"
   version="1.1"
   id="svg1"
   xml:space="preserve"
   sodipodi:docname="logo_smt-optim_dark.svg"
   inkscape:version="1.4.2 (f4327f4, 2025-05-13)"
   xmlns:inkscape="http://www.inkscape.org/namespaces/inkscape"
   xmlns:sodipodi="http://sodipodi.sourceforge.net/DTD/sodipodi-0.dtd"
   xmlns="http://www.w3.org/2000/svg"
   xmlns:svg="http://www.w3.org/2000/svg"><sodipodi:namedview
     id="namedview1"
     pagecolor="#ffffff"
     bordercolor="#000000"
     borderopacity="0.25"
     inkscape:showpageshadow="2"
     inkscape:pageopacity="0.0"
     inkscape:pagecheckerboard="0"
     inkscape:deskcolor="#d1d1d1"
     inkscape:document-units="mm"
     inkscape:zoom="1.5850977"
     inkscape:cx="94.000515"
     inkscape:cy="141.63165"
     inkscape:window-width="1920"
     inkscape:window-height="1009"
     inkscape:window-x="-8"
     inkscape:window-y="-8"
     inkscape:window-maximized="1"
     inkscape:current-layer="g7" /><defs
     id="defs1"><clipPath
       clipPathUnits="userSpaceOnUse"
       id="clipPath11"><path
         style="display:none;fill:#000000;fill-opacity:0.281716;stroke:#ff0000;stroke-width:0.273;stroke-linecap:round;stroke-opacity:1"
         id="path11"
         d="m 110.52393,131.59364 a 3.4042749,0.8050651 0 0 1 -3.39589,0.80507 3.4042749,0.8050651 0 0 1 -3.41261,-0.8011 3.4042749,0.8050651 0 0 1 3.37908,-0.80901 3.4042749,0.8050651 0 0 1 3.42926,0.79711" /><path
         id="lpe_path-effect11"
         style="fill:#000000;fill-opacity:0.281716;stroke:#ff0000;stroke-width:0.273;stroke-linecap:round;stroke-opacity:1"
         class="powerclip"
         d="m 93.907996,124.17845 h 26.423324 v 14.83039 H 93.907996 Z m 16.615774,7.40726 a 3.4042749,0.8050651 0 0 0 -3.42926,-0.79711 3.4042749,0.8050651 0 0 0 -3.37908,0.80901 3.4042749,0.8050651 0 0 0 3.41261,0.8011 3.4042749,0.8050651 0 0 0 3.39589,-0.80507" /></clipPath><clipPath
       clipPathUnits="userSpaceOnUse"
       id="clipath_lpe_path-effect27"><path
         style="display:none;fill:#000000;fill-opacity:0.281716;stroke:#ff0000;stroke-width:0.273;stroke-linecap:round;stroke-opacity:1"
         id="path27"
         d="m 110.52393,131.59364 a 3.4042749,0.8050651 0 0 1 -3.39589,0.80507 3.4042749,0.8050651 0 0 1 -3.41261,-0.8011 3.4042749,0.8050651 0 0 1 3.37908,-0.80901 3.4042749,0.8050651 0 0 1 3.42926,0.79711" /><path
         id="lpe_path-effect27"
         style="fill:#000000;fill-opacity:0.281716;stroke:#ff0000;stroke-width:0.273;stroke-linecap:round;stroke-opacity:1"
         class="powerclip"
         d="m 93.907996,124.17845 h 26.423324 v 14.83039 H 93.907996 Z m 16.615774,7.40726 a 3.4042749,0.8050651 0 0 0 -3.42926,-0.79711 3.4042749,0.8050651 0 0 0 -3.37908,0.80901 3.4042749,0.8050651 0 0 0 3.41261,0.8011 3.4042749,0.8050651 0 0 0 3.39589,-0.80507" /></clipPath></defs><g
     id="layer5"
     style="display:inline"
     transform="translate(-59.53125,-74.083336)"><ellipse
       style="display:inline;fill:none;fill-opacity:1;stroke:#ff7f0e;stroke-width:0.3;stroke-linecap:round;stroke-dasharray:none;stroke-opacity:1"
       id="path6"
       ry="7.4065986"
       rx="29.856413"
       cy="132.0659"
       cx="106.95634" /><path
       style="fill:none;fill-opacity:1;stroke:#ff7f0e;stroke-width:0.4;stroke-linecap:round;stroke-dasharray:none;stroke-opacity:1"
       id="path7"
       d="m 129.08414,132.196 a 22.127789,5.7044611 0 0 1 -22.0733,5.70444 22.127789,5.7044611 0 0 1 -22.182008,-5.67635 22.127789,5.7044611 0 0 1 21.964068,-5.7324 22.127789,5.7044611 0 0 1 22.29017,5.64813" /><path
       style="fill:none;fill-opacity:1;stroke:#ff7f0e;stroke-width:0.6;stroke-linecap:round;stroke-dasharray:none;stroke-opacity:1"
       id="path8"
       d="m 121.76953,132.45622 a 14.813196,3.9563196 0 0 1 -14.77672,3.95631 14.813196,3.9563196 0 0 1 -14.84949,-3.93683 14.813196,3.9563196 0 0 1 14.7036,-3.97569 14.813196,3.9563196 0 0 1 14.92189,3.91725" /><path
       style="display:inline;fill:#ff7f0e;fill-opacity:1;stroke:none;stroke-width:0.273;stroke-linecap:round;stroke-opacity:1"
       id="path9"
       d="m 115.33132,131.59364 a 8.2116632,2.4151952 0 0 1 -8.19144,2.41519 8.2116632,2.4151952 0 0 1 -8.231784,-2.40329 8.2116632,2.4151952 0 0 1 8.150904,-2.42703 8.2116632,2.4151952 0 0 1 8.27192,2.39135"
       clip-path="url(#clipPath11)"
       transform="translate(-0.16331743,1.2472851)" /><path
       style="display:inline;fill:none;fill-opacity:1;stroke:#ff7f0e;stroke-width:0.2;stroke-linecap:round;stroke-dasharray:none;stroke-opacity:1"
       id="path5"
       d="m 72.66785,136.03951 a 38.254738,8.8805647 0 0 1 16.173667,-11.75903 38.254738,8.8805647 0 0 1 51.174383,3.35306 38.254738,8.8805647 0 0 1 -12.69763,11.9868" /></g><g
     id="layer4"
     style="display:none"
     transform="translate(-59.53125,-74.083336)"><text
       xml:space="preserve"
       style="font-size:59.9722px;text-align:start;writing-mode:lr-tb;direction:ltr;text-anchor:start;white-space:pre;inline-size:45.2343;display:inline;fill:#000000;fill-opacity:1;stroke:none;stroke-width:0.429101;stroke-linecap:round;stroke-dasharray:none;stroke-opacity:0.936102"
       x="49.231079"
       y="127.43205"
       id="text4"
       transform="translate(-0.39035449,0.92184064)"><tspan
         x="49.231079"
         y="127.43205"
         id="tspan3"><tspan
           style="font-family:Arial;-inkscape-font-specification:Arial;stroke-opacity:1"
           id="tspan2">S </tspan></tspan></text><text
       xml:space="preserve"
       style="font-size:59.9722px;text-align:start;writing-mode:lr-tb;direction:ltr;text-anchor:start;white-space:pre;inline-size:45.2343;display:inline;fill:#000000;fill-opacity:1;stroke:none;stroke-width:0.429101;stroke-linecap:round;stroke-dasharray:none;stroke-opacity:0.936102"
       x="49.231079"
       y="127.43205"
       id="text4-9"
       transform="translate(70.381729,1.9339221)"><tspan
         x="49.231079"
         y="127.43205"
         id="tspan6"><tspan
           style="font-family:Arial;-inkscape-font-specification:Arial;stroke-opacity:1"
           id="tspan4">T </tspan></tspan></text></g><g
     id="layer7"
     transform="translate(-59.53125,-74.083336)"
     style="display:inline"><g
       id="g7"
       transform="translate(-1.5574139)"><text
         xml:space="preserve"
         style="font-size:12.3472px;font-family:Arial;-inkscape-font-specification:Arial;text-align:start;writing-mode:lr-tb;direction:ltr;text-anchor:start;fill:#ff7f0e;stroke:#ff0000;stroke-width:0.600001;stroke-linecap:round"
         x="76.273361"
         y="159.3669"
         id="text5"><tspan
           id="tspan5"
           style="font-size:12.3472px;fill:#000000;fill-opacity:1;stroke:none;stroke-width:0.6"
           x="76.273361"
           y="159.3669"><tspan
   style="fill:#ffffff;fill-opacity:1"
   id="tspan1">SMT-</tspan> <tspan
   style="font-size:12.3472px;fill:#ff7f0e;fill-opacity:1"
   id="tspan7">optim</tspan></tspan></text><rect
         style="fill:none;fill-opacity:1;stroke:#ff7f0e;stroke-width:0.9;stroke-linecap:round;stroke-dasharray:none;stroke-opacity:1"
         id="rect5"
         width="33.899216"
         height="13.650452"
         x="107.35977"
         y="148.57748"
         ry="2.7678773"
         rx="2.7678773" /></g></g><g
     id="layer3"
     style="display:inline"
     transform="translate(-59.53125,-74.083336)"><path
       style="fill:#1f77b4;fill-opacity:0;stroke:#1f77b4;stroke-width:5;stroke-linecap:round;stroke-dasharray:none;stroke-opacity:1"
       d="m 76.550186,128.7184 c 11.967597,-9.40951 11.549223,-12.33035 20.793678,-36.526952 3.955096,-9.324451 4.241516,-1.790193 6.012096,4.689996 0.90531,3.313366 2.19863,6.351166 4.56876,6.718926 3.7244,-0.58657 5.72159,-11.903981 10.39684,-5.704461 2.18637,5.744011 7.88536,22.021511 16.92937,25.578061"
       id="path4" /></g><g
     id="layer2"
     style="display:inline"
     transform="translate(-59.53125,-74.083336)"><circle
       style="fill:#ff7f0e;fill-opacity:1;stroke-width:0.273;stroke-dasharray:none"
       id="path1"
       cx="76.700714"
       cy="128.43452"
       r="3.7583179" /><circle
       style="fill:#ff7f0e;fill-opacity:1;stroke:none;stroke-width:0.272935;stroke-opacity:0.301961"
       id="path1-5"
       cx="100.04315"
       cy="88.9795"
       r="3.7583179" /><circle
       style="fill:#ff7f0e;fill-opacity:1;stroke-width:0.272935"
       id="path1-5-1"
       cx="107.71109"
       cy="103.15022"
       r="3.7583179" /><circle
       style="fill:#ff7f0e;fill-opacity:1;stroke-width:0.272935"
       id="path1-5-1-1"
       cx="116.61495"
       cy="96.822929"
       r="3.7583179" /><circle
       style="fill:#ff7f0e;fill-opacity:1;stroke-width:0.272935"
       id="path1-5-1-1-2"
       cx="135.1882"
       cy="123.91306"
       r="3.7583179" /></g></svg>
